<?xml version="1.0" encoding="UTF-8" standalone="no"?>
<svg
   xmlns:dc="http://purl.org/dc/elements/1.1/"
   xmlns:cc="http://creativecommons.org/ns#"
   xmlns:rdf="http://www.w3.org/1999/02/22-rdf-syntax-ns#"
   xmlns:svg="http://www.w3.org/2000/svg"
   xmlns="http://www.w3.org/2000/svg"
   version="1.1"
   id="svg4643"
   viewBox="0 0 93.000248 82.857817"
   height="23.384317mm"
   width="26.246737mm">
  <defs
     id="defs4645" />
  <metadata
     id="metadata4648">
    <rdf:RDF>
      <cc:Work
         rdf:about="">
        <dc:format>image/svg+xml</dc:format>
        <dc:type
           rdf:resource="http://purl.org/dc/dcmitype/StillImage" />
        <dc:title></dc:title>
      </cc:Work>
    </rdf:RDF>
  </metadata>
  <path
     style="opacity:1;fill:#000000;fill-opacity:1;stroke:none"
     d="M 91.4457,53.70093 A 46.500192,23.250095 0 0 1 46.50012,71.10326 46.500192,23.250095 0 0 1 1.55454,53.76002 46.500192,23.250095 0 0 0 0,59.60776 46.500192,23.250095 0 0 0 46.50012,82.85782 46.500192,23.250095 0 0 0 93.00025,59.60776 46.500192,23.250095 0 0 0 91.4457,53.70093 Z"
     id="ellipse4208" />
  <path
     style="opacity:1;fill:#aa8800;fill-opacity:1;stroke:none"
     d="M 91.4457,34.11225 A 46.500192,23.250095 0 0 1 46.50012,51.51456 46.500192,23.250095 0 0 1 1.55454,34.17134 46.500192,23.250095 0 0 0 0,40.01908 46.500192,23.250095 0 0 0 46.50012,63.26914 46.500192,23.250095 0 0 0 93.00025,40.01908 46.500192,23.250095 0 0 0 91.4457,34.11225 Z"
     id="ellipse4214" />
  <path
     id="path4241"
     d="m 9.93691,5.9e-5 -0.24023,0.208984 0,1.189453 0.24023,0.208985 c 2.10977,0.0796 3.43332,0.188795 3.97071,0.328125 0.53739,0.13926 0.89508,0.318169 1.07422,0.537109 0.19906,0.21894 0.33837,0.657623 0.41796,1.314453 0.0995,0.65681 0.15982,2.42435 0.17969,4.69336 l 0.0586,5.820312 0,1.714844 6.30664,6.304687 c 9.57796,8.76061 15.46502,14.179219 16.77148,15.447269 1.37334,1.31364 2.96613,2.82541 4.77734,4.53711 0.5848,-0.0187 0.6487,-0.013 1.13672,-0.0273 l 0,0.0332 24.4961,0 0,-2.17969 -5.0918,0 C 63.8097,40.02368 63.65772,39.86984 63.59902,39.5294 63.34021,38.09635 63.21035,33.78792 63.21035,29.05088 l 0,-6.757812 c 0.56185,0.0607 1.12218,0.09961 1.67969,0.09961 3.52292,0 11.41663,-1.144704 14.20312,-3.433594 2.80639,-2.30881 4.20899,-5.513161 4.20899,-9.613281 0,-2.03016 -0.41797,-3.762263 -1.25391,-5.195313 C 80.41615,1.38389 76.87486,10e-5 71.42129,10e-5 c -0.023,0 -0.23254,0.0038 -0.26172,0.0039 l 0,-0.002 -30.57031,0 C 40.57306,0.001159 40.55466,9e-4 40.53846,0 l -0.002,0.002 -0.23633,0 0,0.189453 -0.0605,0.04883 0,1.939453 c -0.27867,0.41798 -1.14471,1.353691 -2.59766,2.806641 l -5.49414,5.494141 c -2.20929,2.20929 -5.81087,5.571743 -10.80664,10.089843 l 0,-6.269531 0.0605,-6.865234 c 0,-1.43305 0.0488,-2.852298 0.14843,-3.648438 0.11939,-0.81607 0.34915,-1.333794 0.6875,-1.552734 0.33837,-0.21897 0.8749,-0.367676 1.61133,-0.447266 0.75635,-0.0796 1.82198,-0.139807 3.19532,-0.179687 l 0.23828,-0.208985 0,-1.189453 L 27.04427,4.9e-5 c -5.03558,0.15923 -7.89165,0.240234 -8.56836,0.240234 -0.75635,0 -2.35851,-0.03966 -4.80664,-0.119141 L 9.93684,4.9e-5 Z m 37.71289,2.058593 20.26172,0 c 4.35464,0.486449 6.64453,4.231213 6.64453,9.40625 0,2.56756 -0.60814,4.568904 -1.82226,6.001954 -0.93143,1.08414 -4.8521,1.743673 -7.55078,1.996093 l -10.54102,0 0,9.587891 c 0,4.73704 -0.12988,9.04547 -0.38867,10.47852 -0.0587,0.34044 -0.21066,0.49428 -0.43555,0.60156 l -4.11328,0 C 49.34432,39.87027 47.75506,38.42779 44.89785,35.76764 L 26.92324,19.138731 39.01504,8.091856 c 1.69178,-1.55246 3.18479,-2.85723 4.47851,-3.91211 1.31364,-1.0748 2.3096,-1.711136 2.98633,-1.910156 0.28079,-0.09084 0.68697,-0.157787 1.16992,-0.210938 z"
     style="font-style:normal;font-variant:normal;font-weight:normal;font-stretch:normal;font-size:medium;line-height:125%;font-family:'Palatino Linotype';-inkscape-font-specification:'Palatino Linotype';letter-spacing:0px;word-spacing:0px;fill:#000000;fill-opacity:1;stroke:none;stroke-width:1px;stroke-linecap:butt;stroke-linejoin:miter;stroke-opacity:1" />
</svg>
