<?xml version="1.0" encoding="UTF-8" standalone="no"?>
<svg
   xmlns:dc="http://purl.org/dc/elements/1.1/"
   xmlns:cc="http://creativecommons.org/ns#"
   xmlns:rdf="http://www.w3.org/1999/02/22-rdf-syntax-ns#"
   xmlns:svg="http://www.w3.org/2000/svg"
   xmlns="http://www.w3.org/2000/svg"
   version="1.1"
   id="svg5448"
   viewBox="0 0 266.85945 41.541479"
   height="11.723928mm"
   width="75.313667mm">
  <defs
     id="defs5450" />
  <metadata
     id="metadata5453">
    <rdf:RDF>
      <cc:Work
         rdf:about="">
        <dc:format>image/svg+xml</dc:format>
        <dc:type
           rdf:resource="http://purl.org/dc/dcmitype/StillImage" />
        <dc:title></dc:title>
      </cc:Work>
    </rdf:RDF>
  </metadata>
  <path
     id="path5352"
     d="m 193.47468,3e-5 -0.95899,0.13281 c -0.31437,0.38954 -0.47607,0.58934 -0.48633,0.59961 l -0.73828,0.89258 -0.01,0.0723 0.12695,0.12305 0.0781,-0.0215 1.0254,-0.79883 L 193.5877,0.19536 193.5252,0.0352 193.4744,0 Z m -1.68555,2.3125 c -0.74836,0 -1.34484,0.20518 -1.78906,0.61523 -0.44423,0.40664 -0.66797,0.92936 -0.66797,1.56836 0,0.23578 0.0381,0.45757 0.11328,0.66602 0.0786,0.20503 0.18216,0.37796 0.30859,0.52148 0.12985,0.14011 0.28911,0.25735 0.48047,0.34961 0.19136,0.0923 0.38286,0.16068 0.57422,0.20508 0.19478,0.0444 0.46297,0.0938 0.80469,0.14844 0.35196,0.0581 0.61723,0.11279 0.79492,0.16406 0.17769,0.0478 0.33597,0.1221 0.47266,0.22461 0.1401,0.0991 0.24708,0.23295 0.32226,0.40039 0.0786,0.16744 0.11719,0.36431 0.11719,0.58984 0,0.32121 -0.0796,0.61139 -0.24024,0.8711 -0.1606,0.25628 -0.38727,0.45072 -0.67773,0.58398 -0.28704,0.13327 -0.61044,0.20117 -0.97266,0.20117 -0.26312,0 -0.52545,-0.0352 -0.78515,-0.10351 -0.25629,-0.0684 -0.46195,-0.15579 -0.61914,-0.26172 -0.15377,-0.10935 -0.24659,-0.21096 -0.27735,-0.30664 -0.0273,-0.0991 -0.0493,-0.3673 -0.0664,-0.80469 l -0.041,-0.041 -0.25195,0 -0.041,0.041 c -0.0171,0.78936 -0.042,1.29058 -0.0762,1.50586 l 0.0312,0.0664 c 0.53307,0.25287 1.15203,0.38086 1.85938,0.38086 0.84403,0 1.56313,-0.24328 2.15429,-0.72851 0.59458,-0.48524 0.89063,-1.09247 0.89063,-1.82032 0,-0.37247 -0.0826,-0.69 -0.25,-0.95312 -0.16403,-0.26312 -0.38533,-0.45463 -0.66211,-0.57422 -0.27337,-0.12302 -0.71158,-0.22707 -1.31641,-0.3125 -0.44081,-0.065 -0.74467,-0.11966 -0.91211,-0.16406 -0.16402,-0.0444 -0.31106,-0.11038 -0.4375,-0.19922 -0.12301,-0.0923 -0.22218,-0.21537 -0.30078,-0.36914 -0.0786,-0.15719 -0.11914,-0.33745 -0.11914,-0.53907 0,-0.2597 0.0655,-0.51421 0.19531,-0.76367 0.12985,-0.24945 0.32135,-0.43265 0.57422,-0.54883 0.25287,-0.11618 0.524,-0.17382 0.81445,-0.17382 0.34855,0 0.67146,0.0791 0.96875,0.23632 0.2973,0.15719 0.45313,0.2886 0.4668,0.39454 0.0137,0.10593 0.0244,0.36338 0.0312,0.77343 l 0.041,0.0371 0.26562,0 0.0469,-0.041 c 0.0171,-0.58091 0.0635,-1.02937 0.13867,-1.34375 l -0.0371,-0.0605 C 193.42779,2.6046 193.10976,2.49567 192.7578,2.42391 192.40925,2.34871 192.08634,2.31258 191.78905,2.31258 Z m -108.13281,0.004 c -0.78594,0 -1.49478,0.14509 -2.12696,0.43555 -0.62875,0.28704 -1.1373,0.72231 -1.52343,1.30664 -0.38272,0.58091 -0.57227,1.26191 -0.57227,2.04101 0,1.13108 0.38349,2.04754 1.15234,2.74805 0.77228,0.70051 1.77618,1.05078 3.00977,1.05078 0.86112,0 1.66913,-0.19394 2.42773,-0.58008 L 86.21882,8.84192 86.13292,8.7345 C 85.96206,8.85751 85.7818,8.96157 85.59386,9.047 85.40933,9.1324 85.1768,9.20378 84.89659,9.26184 c -0.28021,0.0581 -0.57283,0.0879 -0.87695,0.0879 -0.68685,0 -1.28675,-0.13923 -1.80274,-0.41601 C 81.70433,8.65694 81.29935,8.26026 81.00206,7.74427 80.70477,7.22828 80.55479,6.62887 80.55479,5.94544 c 0,-0.68 0.12604,-1.2545 0.37891,-1.72265 0.25287,-0.47156 0.60851,-0.83014 1.06641,-1.07617 0.45789,-0.24946 0.97718,-0.37305 1.55468,-0.37305 0.38272,0 0.74961,0.0552 1.10157,0.16797 0.35538,0.10935 0.6568,0.2647 0.90625,0.46289 l 0.0527,0.87109 0.041,0.041 0.24023,0 0.0352,-0.041 c 0.0683,-0.75518 0.14211,-1.22856 0.2207,-1.41992 L 86.11724,2.8048 C 85.81995,2.67153 85.44819,2.55673 85.00396,2.46105 84.55974,2.36535 84.11079,2.31652 83.65631,2.31652 Z m 67.25,0 c -0.78595,0 -1.49479,0.14509 -2.12696,0.43555 -0.62875,0.28704 -1.1373,0.72231 -1.52343,1.30664 -0.38272,0.58091 -0.57422,1.26191 -0.57422,2.04101 0,1.13108 0.38544,2.04754 1.15429,2.74805 0.77228,0.70051 1.77423,1.05078 3.00782,1.05078 0.86112,0 1.67108,-0.19394 2.42968,-0.58008 l 0.19532,-0.47656 -0.0879,-0.10742 c -0.17086,0.12301 -0.34917,0.22707 -0.53711,0.3125 -0.18453,0.0854 -0.41706,0.15678 -0.69727,0.21484 -0.2802,0.0581 -0.57283,0.0879 -0.87695,0.0879 -0.68685,0 -1.2887,-0.13923 -1.80469,-0.41601 -0.51257,-0.27679 -0.91755,-0.67347 -1.21484,-1.18946 -0.29729,-0.51599 -0.44532,-1.1154 -0.44532,-1.79883 0,-0.68 0.12604,-1.2545 0.37891,-1.72265 0.25287,-0.47156 0.60851,-0.83014 1.06641,-1.07617 0.45789,-0.24946 0.97523,-0.37305 1.55273,-0.37305 0.38272,0 0.7496,0.0552 1.10156,0.16797 0.35539,0.10935 0.65876,0.2647 0.90821,0.46289 l 0.0508,0.87109 0.041,0.041 0.24023,0 0.0371,-0.041 c 0.0683,-0.75518 0.14211,-1.22856 0.2207,-1.41992 l -0.0371,-0.0508 c -0.29729,-0.13327 -0.6671,-0.24807 -1.11132,-0.34375 -0.44423,-0.0957 -0.89318,-0.14453 -1.34766,-0.14453 z m 48.14062,0 c -0.78594,0 -1.49478,0.14509 -2.12695,0.43555 -0.62875,0.28704 -1.1373,0.72231 -1.52344,1.30664 -0.38272,0.58091 -0.57422,1.26191 -0.57422,2.04101 0,1.13108 0.38544,2.04754 1.1543,2.74805 0.77227,0.70051 1.77422,1.05078 3.00781,1.05078 0.86112,0 1.67108,-0.19394 2.42969,-0.58008 l 0.19531,-0.47656 -0.0879,-0.10742 c -0.17086,0.12301 -0.34917,0.22707 -0.53711,0.3125 -0.18452,0.0854 -0.41706,0.15678 -0.69726,0.21484 -0.28021,0.0581 -0.57283,0.0879 -0.87696,0.0879 -0.68684,0 -1.2887,-0.13923 -1.80468,-0.41601 -0.51258,-0.27679 -0.91756,-0.67347 -1.21485,-1.18946 -0.29729,-0.51599 -0.44531,-1.1154 -0.44531,-1.79883 0,-0.68 0.12604,-1.2545 0.37891,-1.72265 0.25286,-0.47156 0.60851,-0.83014 1.0664,-1.07617 0.4579,-0.24946 0.97524,-0.37305 1.55274,-0.37305 0.38272,0 0.74959,0.0552 1.10156,0.16797 0.35538,0.10935 0.65875,0.2647 0.9082,0.46289 l 0.0508,0.87109 0.041,0.041 0.24219,0 0.0352,-0.041 c 0.0683,-0.75518 0.14211,-1.22856 0.2207,-1.41992 l -0.0371,-0.0508 c -0.29729,-0.13327 -0.6671,-0.24807 -1.11133,-0.34375 -0.44422,-0.0957 -0.89317,-0.14453 -1.34765,-0.14453 z m -32.36523,0.006 c -0.62876,0 -1.19251,0.10405 -1.69141,0.3125 -0.4989,0.20503 -0.92587,0.49765 -1.28125,0.87695 -0.35196,0.37589 -0.60111,0.78624 -0.74805,1.23047 -0.14693,0.44423 -0.2207,0.92102 -0.2207,1.4336 0,0.3998 0.0738,0.84289 0.2207,1.32812 0.15036,0.48523 0.39071,0.9122 0.71875,1.28125 0.33147,0.36905 0.73108,0.648 1.19922,0.83594 0.46815,0.18452 0.98012,0.27734 1.53711,0.27734 0.78594,0 1.49234,-0.17196 2.1211,-0.51367 0.63217,-0.34171 1.11873,-0.82046 1.45703,-1.43555 0.33829,-0.61508 0.50781,-1.3078 0.50781,-2.08008 0,-1.0969 -0.34685,-1.96158 -1.03711,-2.59375 -0.69026,-0.63558 -1.61796,-0.95312 -2.7832,-0.95312 z m 18.1875,0 c -0.62876,0 -1.19251,0.10405 -1.69141,0.3125 -0.4989,0.20503 -0.92587,0.49765 -1.28125,0.87695 -0.35196,0.37589 -0.60306,0.78624 -0.75,1.23047 -0.14694,0.44423 -0.21875,0.92102 -0.21875,1.4336 0,0.3998 0.0718,0.84289 0.21875,1.32812 0.15036,0.48523 0.39071,0.9122 0.71875,1.28125 0.33146,0.36905 0.73107,0.648 1.19922,0.83594 0.46815,0.18452 0.98012,0.27734 1.53711,0.27734 0.78594,0 1.49429,-0.17196 2.12305,-0.51367 0.63217,-0.34171 1.11678,-0.82046 1.45507,-1.43555 0.3383,-0.61508 0.50782,-1.3078 0.50782,-2.08008 0,-1.0969 -0.3449,-1.96158 -1.03516,-2.59375 -0.69026,-0.63558 -1.61796,-0.95312 -2.7832,-0.95312 z M 66.80866,2.39483 c -0.32121,0.91237 -0.649,1.78536 -0.98047,2.61914 L 64.56257,8.16631 63.75788,4.61358 C 63.70318,4.37438 63.64263,4.06515 63.57429,3.68584 63.50599,3.30313 63.47077,3.07596 63.47077,3.0042 c 0,-0.0888 0.0381,-0.14598 0.11328,-0.16992 0.0786,-0.0239 0.30819,-0.043 0.6875,-0.0566 l 0.041,-0.041 0,-0.22461 -0.0469,-0.0469 c -0.54333,0.0273 -0.95661,0.041 -1.24023,0.041 -0.3793,0 -0.81458,-0.0137 -1.30664,-0.041 l -0.041,0.0469 0,0.22461 0.041,0.041 c 0.28362,0.0342 0.4673,0.0723 0.55273,0.11328 0.0854,0.0376 0.16749,0.22372 0.24609,0.5586 l 0.99024,4.21875 0.46484,2.13672 0.51953,0 0.28125,-0.8086 c 0.0854,-0.2392 0.20023,-0.54842 0.34375,-0.92773 l 0.54688,-1.43555 1.02148,-2.53125 1.16797,3.16211 c 0.23236,0.63559 0.52547,1.4817 0.88086,2.54102 l 0.52344,0 0.56836,-2.1211 C 70.02781,6.92191 70.16703,6.4158 70.24221,6.16635 l 0.52735,-1.72656 0.29883,-0.95312 c 0.0888,-0.29048 0.15721,-0.46537 0.20507,-0.52344 0.0478,-0.0615 0.10304,-0.10548 0.16797,-0.13281 0.0649,-0.0307 0.19585,-0.0498 0.39063,-0.0566 l 0.041,-0.0371 0,-0.23047 -0.041,-0.041 c -0.60142,0.0273 -0.95706,0.041 -1.06641,0.041 -0.1196,0 -0.46987,-0.0137 -1.05078,-0.041 l -0.041,0.041 0,0.22656 0.041,0.0449 c 0.40664,0.0102 0.65285,0.0288 0.73828,0.0527 0.0854,0.0205 0.12695,0.0757 0.12695,0.16797 0,0.082 -0.0635,0.38538 -0.19335,0.9082 -0.12986,0.52282 -0.23928,0.94441 -0.32813,1.26563 l -0.87305,3.06055 -1.20312,-3.3418 c -0.29046,-0.80645 -0.57234,-1.6384 -0.8457,-2.4961 l -0.32813,0 z m 38.81055,0 c -0.2597,0.6185 -0.52009,1.23697 -0.78321,1.85547 l -1.39453,3.15625 -0.53711,1.16992 c -0.17088,0.36905 -0.28568,0.58596 -0.34375,0.6543 -0.0547,0.0649 -0.11769,0.11083 -0.18945,0.13476 -0.0718,0.0206 -0.23297,0.0318 -0.48242,0.0352 l -0.0469,0.041 0,0.26758 0.0469,0.041 c 0.38272,-0.0273 0.76083,-0.041 1.13672,-0.041 0.33146,0 0.71934,0.0137 1.16015,0.041 l 0.041,-0.041 0,-0.26758 -0.0469,-0.041 c -0.37246,-0.003 -0.605,-0.0254 -0.69726,-0.0664 -0.0923,-0.041 -0.13867,-0.10402 -0.13867,-0.18945 0,-0.10935 0.0493,-0.2818 0.14843,-0.51758 l 0.5586,-1.3125 2.96875,0 0.63086,1.5625 c 0.0479,0.12301 0.0703,0.22365 0.0703,0.29883 0,0.0923 -0.0469,0.1504 -0.14258,0.17773 -0.0957,0.0239 -0.33408,0.0401 -0.7168,0.0469 l -0.041,0.041 0,0.26758 0.041,0.041 c 0.56724,-0.0137 1.13393,-0.0298 1.70118,-0.0469 0.29046,0 0.6163,0.0161 0.97851,0.0469 l 0.041,-0.041 0,-0.26758 -0.041,-0.041 c -0.21868,-0.003 -0.36085,-0.0147 -0.42578,-0.0352 -0.0615,-0.0239 -0.1138,-0.0567 -0.1582,-0.0977 -0.041,-0.041 -0.1177,-0.17535 -0.23047,-0.40429 -0.10935,-0.22895 -0.20754,-0.44194 -0.29297,-0.63672 l -0.29102,-0.6875 -2.18945,-5.14453 -0.33398,0 z m -32.03516,0.004 -1.45117,0.24219 -0.0449,0.0449 0,0.21484 0.0449,0.0469 c 0.28361,0 0.4585,0.0107 0.52344,0.0312 0.0649,0.0171 0.15774,0.0806 0.27734,0.19336 0.1196,0.10935 0.28667,0.3199 0.50195,0.63086 0.2187,0.30754 0.39945,0.57818 0.54297,0.81055 l 0.45117,0.73242 c 0.42714,0.70051 0.67873,1.1436 0.75391,1.32812 l 0,0.97266 -0.01,0.87695 c -0.003,0.29046 -0.0166,0.4844 -0.0371,0.58008 -0.0205,0.0922 -0.0483,0.15525 -0.0859,0.18945 -0.0342,0.0307 -0.10257,0.0556 -0.20508,0.0762 -0.10251,0.0205 -0.316,0.0391 -0.64063,0.0527 l -0.041,0.0293 0,0.25782 0.041,0.041 c 0.86796,-0.0273 1.3555,-0.041 1.46485,-0.041 0.13668,0 0.3277,0.003 0.57031,0.01 0.58435,0.0205 0.88332,0.0312 0.90039,0.0312 l 0.041,-0.041 0,-0.25782 -0.041,-0.0293 c -0.36222,-0.0137 -0.58938,-0.0327 -0.68164,-0.0566 -0.0888,-0.0239 -0.14939,-0.0537 -0.18359,-0.0879 -0.0308,-0.0376 -0.0557,-0.11428 -0.0762,-0.23046 -0.0172,-0.1196 -0.0279,-0.32771 -0.0313,-0.625 l -0.006,-0.76954 0,-0.7539 c 0,-0.11618 0.0132,-0.21536 0.0371,-0.30078 0.0239,-0.0854 0.16363,-0.33946 0.41992,-0.75977 0.25628,-0.42372 0.47025,-0.77399 0.64453,-1.05078 0.17769,-0.28021 0.44589,-0.66614 0.80469,-1.1582 0.3588,-0.49548 0.62406,-0.83745 0.79492,-1.02539 l 0,-0.0977 -0.041,-0.041 c -0.1606,0.0137 -0.27883,0.0215 -0.35742,0.0215 -0.12643,0 -0.25736,-0.008 -0.39062,-0.0215 L 76.98795,4.32672 76.3981,5.31109 75.87467,6.14117 C 75.60471,5.60467 75.32284,5.07073 75.02896,4.53765 74.73509,4.00117 74.49425,3.58299 74.30631,3.2857 74.12178,2.98499 73.97962,2.77981 73.88053,2.67047 73.78483,2.56111 73.68616,2.47074 73.58365,2.39898 Z m 61.37109,0.0625 c -0.10934,0 -0.28667,0.003 -0.52929,0.01 -0.65609,0.0239 -1.17636,0.0352 -1.5625,0.0352 -0.34855,0 -0.8356,-0.0137 -1.46094,-0.041 l -0.041,0.0371 0,0.25586 0.041,0.0352 c 0.36222,0.0137 0.58938,0.0327 0.68164,0.0566 0.0923,0.0239 0.15286,0.0542 0.18359,0.0918 0.0342,0.0376 0.0586,0.11379 0.0723,0.22656 0.0171,0.11277 0.0279,0.36435 0.0312,0.75391 l 0.01,0.99804 0,2.37305 -0.006,1.08203 c -0.003,0.36564 -0.0171,0.60111 -0.041,0.70703 -0.0205,0.10591 -0.0483,0.17674 -0.0859,0.21094 -0.0342,0.0307 -0.105,0.0556 -0.21093,0.0762 -0.10593,0.0205 -0.31697,0.0371 -0.63477,0.0508 l -0.041,0.0312 0,0.25586 0.041,0.041 c 0.87137,-0.0273 1.35891,-0.041 1.46484,-0.041 0.13669,0 0.3277,0.005 0.57032,0.0117 0.58434,0.0205 0.88527,0.0312 0.90234,0.0312 l 0.041,-0.041 0,-0.25781 -0.041,-0.0293 c -0.36221,-0.0137 -0.58938,-0.0327 -0.68164,-0.0566 -0.0922,-0.0273 -0.15721,-0.0601 -0.19141,-0.0977 -0.0308,-0.0376 -0.0532,-0.1138 -0.0703,-0.22657 -0.0171,-0.11276 -0.0279,-0.36191 -0.0312,-0.74804 l -0.006,-1 0,-2.37305 c 0,-1.20625 0.0269,-1.84669 0.0781,-1.92187 0.31779,-0.0991 0.65487,-0.14844 1.01367,-0.14844 0.51257,0 0.91999,0.11725 1.2207,0.34961 0.30071,0.22895 0.45117,0.56847 0.45117,1.01953 0,0.50232 -0.16707,0.89411 -0.50195,1.17773 -0.33488,0.28363 -0.79751,0.42578 -1.38867,0.42578 -0.0991,0 -0.23832,-0.005 -0.41602,-0.0156 l -0.0508,0.16016 c 0.61508,0.70051 1.21694,1.46114 1.80469,2.28125 0.50574,0.70735 0.87555,1.2032 1.11133,1.49024 0.28704,-0.0205 0.5523,-0.0312 0.79492,-0.0312 0.22553,0 0.41996,0.0107 0.58398,0.0312 l 0.0469,-0.0449 0,-0.24219 -0.041,-0.041 c -0.12304,0 -0.21342,-0.005 -0.27148,-0.0156 -0.0547,-0.0103 -0.12258,-0.0376 -0.20117,-0.082 -0.0786,-0.0478 -0.25153,-0.24764 -0.52149,-0.59961 -0.26995,-0.35538 -0.52398,-0.69197 -0.75976,-1.00977 l -0.72852,-0.96289 c -0.24945,-0.32804 -0.4219,-0.55814 -0.51758,-0.6914 0.51599,-0.0991 0.92097,-0.24664 1.21485,-0.44141 0.29387,-0.1982 0.5176,-0.4361 0.66797,-0.71289 0.15035,-0.27679 0.2246,-0.55866 0.2246,-0.8457 0,-0.43056 -0.15339,-0.80282 -0.46093,-1.11719 -0.30755,-0.31438 -0.89328,-0.4707 -1.75782,-0.4707 z m -48.02929,0.004 -0.041,0.0371 0,0.25586 0.041,0.0352 0.39062,0.0312 c 0.11958,0.0137 0.20214,0.0303 0.25,0.0508 0.0512,0.0171 0.0869,0.0391 0.10742,0.0664 0.0239,0.0273 0.0454,0.0762 0.0625,0.14453 0.0171,0.0683 0.0284,0.18314 0.0352,0.34375 0.007,0.15719 0.0117,0.36237 0.0117,0.61523 l 0.004,1.16211 0,1.88086 c 0,0.30072 -0.0108,0.73842 -0.0312,1.3125 -0.0171,0.57066 -0.0396,0.87111 -0.0703,0.89844 -0.0273,0.0239 -0.14214,0.0869 -0.34375,0.18945 l -0.041,0.0508 0,0.16797 0.041,0.041 c 0.35196,-0.0273 0.68905,-0.041 1.01367,-0.041 l 1.39454,0.0117 c 1.05589,0 1.90982,0.0107 2.5625,0.0312 l 0.0371,-0.041 c 0,-0.2597 0.0137,-0.57382 0.041,-0.93945 0.0308,-0.36563 0.0611,-0.62064 0.0918,-0.76758 l -0.041,-0.0371 -0.24609,0 -0.0508,0.0371 c -0.0102,0.0718 -0.0513,0.25007 -0.12305,0.53711 -0.0684,0.28362 -0.1177,0.46438 -0.14844,0.54297 -0.18794,0.0786 -0.38725,0.1279 -0.5957,0.14844 -0.20845,0.0205 -0.72627,0.0312 -1.55664,0.0312 l -0.94336,0 c -0.0171,-0.3383 -0.0254,-0.86639 -0.0254,-1.58399 0,-0.66976 0.008,-1.1485 0.0254,-1.43554 0.40664,-0.0171 0.70806,-0.0254 0.90625,-0.0254 0.3588,0 0.64068,0.0107 0.8457,0.0312 0.20501,0.0205 0.33104,0.0478 0.37891,0.082 0.0513,0.0342 0.084,0.0752 0.0977,0.12304 0.0137,0.0444 0.0357,0.18658 0.0664,0.42578 l 0.0371,0.30664 0.041,0.041 0.23437,0 0.041,-0.041 -0.0254,-1.15234 C 91.4109,5.65762 91.4192,5.28293 91.426,4.91046 l -0.041,-0.041 -0.23437,0 -0.041,0.041 -0.0215,0.31836 c -0.0137,0.1606 -0.0303,0.27296 -0.0508,0.33789 -0.0171,0.0615 -0.0444,0.10498 -0.082,0.12891 -0.0342,0.0205 -0.15728,0.04 -0.36914,0.0606 -0.21186,0.0205 -0.47469,0.0312 -0.78906,0.0312 -0.31096,0 -0.65048,-0.0107 -1.01953,-0.0312 L 88.7932,4.7152 88.8069,3.7777 88.8284,2.95739 c 0.42031,-0.0376 0.7652,-0.0566 1.03516,-0.0566 0.19136,0 0.47616,0.0161 0.85547,0.0469 0.38272,0.0273 0.68316,0.0879 0.89843,0.1836 0.0444,0.26312 0.0664,0.54157 0.0664,0.83203 0,0.0239 -0.003,0.0513 -0.006,0.082 l 0.0469,0.041 0.25,0 0.0312,-0.041 c 0.041,-0.70052 0.10402,-1.21493 0.18945,-1.54297 l -0.0254,-0.0371 c -0.87479,0.0205 -1.87332,0.0312 -2.99414,0.0312 -0.32805,0 -1.07792,-0.0107 -2.25,-0.0312 z m 34.55859,0 -0.041,0.0371 0,0.25586 0.041,0.0352 c 0.36221,0.0137 0.58938,0.0327 0.68164,0.0566 0.0923,0.0239 0.15286,0.0542 0.1836,0.0918 0.0342,0.0376 0.0586,0.11379 0.0723,0.22656 0.0172,0.11277 0.0279,0.36435 0.0312,0.75391 l 0.01,0.99804 0,2.37305 -0.006,1.08203 c -0.003,0.36564 -0.0171,0.60111 -0.041,0.70703 -0.0205,0.10591 -0.0483,0.17674 -0.0859,0.21094 -0.0342,0.0307 -0.10501,0.0556 -0.21093,0.0762 -0.10594,0.0205 -0.31698,0.0391 -0.63477,0.0527 l -0.041,0.0293 0,0.25781 0.041,0.041 c 0.87137,-0.0273 1.3589,-0.041 1.46485,-0.041 0.13667,0 0.32769,0.003 0.57031,0.01 0.58435,0.0205 0.88527,0.0312 0.90234,0.0312 l 0.041,-0.041 0,-0.25781 -0.041,-0.0293 c -0.36222,-0.0137 -0.58938,-0.0327 -0.68164,-0.0566 -0.0922,-0.0273 -0.15721,-0.0601 -0.19141,-0.0977 -0.0308,-0.0376 -0.0532,-0.1138 -0.0703,-0.22656 -0.0172,-0.11277 -0.0279,-0.36192 -0.0312,-0.74805 l -0.006,-0.99805 0,-2.375 0.0117,-1.17773 c 0,-0.24603 0.008,-0.43753 0.0254,-0.57422 0.0205,-0.14009 0.0591,-0.22998 0.11719,-0.26758 0.0581,-0.0376 0.15091,-0.0625 0.27734,-0.0762 0.12985,-0.0137 0.31304,-0.0244 0.54883,-0.0312 l 0.041,-0.0352 0,-0.25586 -0.041,-0.0371 c -0.86454,0.0273 -1.35649,0.041 -1.47265,0.041 -0.12987,0 -0.40392,-0.006 -0.82422,-0.0195 l -0.64063,-0.0215 z m 3.66016,0 -0.041,0.0371 0,0.25586 0.041,0.0352 0.38867,0.0312 c 0.11957,0.0137 0.20409,0.0303 0.25195,0.0508 0.0512,0.0171 0.0869,0.0391 0.10742,0.0664 0.0239,0.0273 0.0435,0.0762 0.0606,0.14453 0.0171,0.0683 0.0303,0.18314 0.0371,0.34375 0.007,0.15719 0.01,0.36237 0.01,0.61523 l 0.004,1.16211 0,1.88086 c 0,0.30072 -0.009,0.73842 -0.0293,1.3125 -0.0171,0.57066 -0.0415,0.87111 -0.0723,0.89844 -0.0273,0.0239 -0.14214,0.0869 -0.34375,0.18945 l -0.041,0.0508 0,0.16797 0.041,0.041 c 0.35196,-0.0273 0.69099,-0.041 1.01563,-0.041 l 1.39453,0.0117 c 1.05589,0 1.90982,0.0107 2.5625,0.0312 l 0.0352,-0.041 c 0,-0.2597 0.0137,-0.57382 0.041,-0.93945 0.0308,-0.36563 0.0611,-0.62064 0.0918,-0.76758 l -0.041,-0.0371 -0.24609,0 -0.0508,0.0371 c -0.0102,0.0718 -0.0513,0.25007 -0.12304,0.53711 -0.0684,0.28362 -0.11771,0.46438 -0.14844,0.54297 -0.18794,0.0786 -0.3853,0.1279 -0.59375,0.14844 -0.20845,0.0205 -0.72823,0.0312 -1.55859,0.0312 l -0.94336,0 c -0.0171,-0.3383 -0.0254,-0.86639 -0.0254,-1.58399 0,-0.66976 0.008,-1.1485 0.0254,-1.43554 0.40664,-0.0171 0.70805,-0.0254 0.90625,-0.0254 0.3588,0 0.64067,0.0107 0.8457,0.0312 0.20501,0.0205 0.33299,0.0478 0.38086,0.082 0.0513,0.0342 0.084,0.0752 0.0977,0.12304 0.0137,0.0444 0.0357,0.18658 0.0664,0.42578 l 0.0352,0.30664 0.041,0.041 0.23633,0 0.041,-0.041 -0.0254,-1.15234 c 0.0103,-0.37589 0.0186,-0.75058 0.0254,-1.12305 l -0.041,-0.041 -0.23633,0 -0.041,0.041 -0.0195,0.31836 c -0.0137,0.1606 -0.0322,0.27296 -0.0527,0.33789 -0.0171,0.0615 -0.0444,0.10498 -0.082,0.12891 -0.0342,0.0205 -0.15728,0.04 -0.36914,0.0606 -0.21187,0.0205 -0.47469,0.0312 -0.78906,0.0312 -0.31096,0 -0.65048,-0.0107 -1.01953,-0.0312 l 0.0156,-1.04102 0.0156,-0.9375 0.0195,-0.82031 c 0.4203,-0.0376 0.7652,-0.0566 1.03515,-0.0566 0.19136,0 0.47812,0.0161 0.85743,0.0469 0.38272,0.0273 0.68121,0.0879 0.89648,0.1836 0.0444,0.26312 0.0664,0.54157 0.0664,0.83203 0,0.0239 -0.003,0.0513 -0.006,0.082 l 0.0469,0.041 0.25196,0 0.0293,-0.041 c 0.041,-0.70052 0.10403,-1.21493 0.18946,-1.54297 l -0.0254,-0.0371 c -0.8748,0.0205 -1.87137,0.0312 -2.99219,0.0312 -0.32805,0 -1.07792,-0.0107 -2.25,-0.0312 z m 13.20898,0 -0.041,0.0371 0,0.25586 0.041,0.0352 c 0.36222,0.0137 0.58938,0.0327 0.68164,0.0566 0.0923,0.0239 0.15286,0.0542 0.1836,0.0918 0.0342,0.0376 0.0586,0.11379 0.0723,0.22656 0.0172,0.11277 0.0279,0.36435 0.0312,0.75391 l 0.01,0.99804 0,1.96875 c 0,0.5365 0.0137,0.9361 0.041,1.19922 0.0273,0.2597 0.0874,0.48686 0.17969,0.68164 0.0923,0.19136 0.24322,0.37456 0.45508,0.54883 0.21187,0.17427 0.50155,0.31399 0.86719,0.41992 0.36904,0.10593 0.79308,0.16016 1.27148,0.16016 0.38272,0 0.75008,-0.0435 1.10547,-0.12891 0.35537,-0.082 0.6475,-0.19975 0.87305,-0.35351 0.22893,-0.1572 0.42387,-0.35113 0.58789,-0.58008 0.16741,-0.23237 0.27635,-0.52792 0.32422,-0.88672 0.0479,-0.3588 0.0703,-0.84879 0.0703,-1.4707 l 0,-1.5586 0.0156,-1.15234 c 0.007,-0.37247 0.02,-0.59719 0.0371,-0.67578 0.0205,-0.0786 0.0483,-0.13818 0.0859,-0.17578 0.041,-0.0376 0.1094,-0.065 0.20508,-0.082 0.0991,-0.0205 0.30965,-0.0342 0.63086,-0.041 l 0.0469,-0.041 0,-0.2461 -0.0469,-0.041 c -0.54674,0.0273 -0.94929,0.041 -1.20899,0.041 -0.30412,0 -0.70911,-0.0137 -1.21484,-0.041 l -0.041,0.0469 0,0.24024 0.041,0.041 c 0.39639,0.007 0.63723,0.0288 0.72266,0.0664 0.0889,0.0342 0.14895,0.0884 0.17968,0.16015 0.0342,0.0684 0.0538,0.33655 0.0606,0.80469 0.0103,0.46474 0.0156,0.82917 0.0156,1.09571 l 0,1.58007 c 0,0.57408 -0.0274,1.02303 -0.082,1.34766 -0.0512,0.32121 -0.16312,0.5811 -0.33398,0.7793 -0.17085,0.19819 -0.42,0.34915 -0.74805,0.45507 -0.32462,0.10252 -0.67489,0.1543 -1.05078,0.1543 -0.35538,0 -0.67292,-0.0386 -0.95312,-0.11719 -0.28021,-0.0786 -0.49419,-0.17972 -0.64453,-0.30273 -0.15037,-0.12643 -0.26467,-0.27445 -0.33985,-0.44531 -0.0718,-0.17428 -0.11864,-0.38727 -0.14258,-0.63672 -0.0205,-0.25287 -0.0312,-0.64711 -0.0312,-1.1836 l 0,-1.63085 0.01,-1.17774 c 0,-0.24603 0.008,-0.43753 0.0254,-0.57422 0.0205,-0.14009 0.0611,-0.22998 0.11914,-0.26758 0.0581,-0.0376 0.15091,-0.0625 0.27734,-0.0762 0.12986,-0.0137 0.3111,-0.0244 0.54688,-0.0312 l 0.041,-0.0352 0,-0.25586 -0.041,-0.0371 c -0.86453,0.0273 -1.35452,0.041 -1.4707,0.041 -0.12986,0 -0.6174,-0.0137 -1.46485,-0.041 z m 15.70899,0 -0.041,0.0371 0,0.25586 0.041,0.0352 c 0.36221,0.0137 0.58937,0.0327 0.68164,0.0566 0.0923,0.0239 0.15479,0.0542 0.18554,0.0918 0.0342,0.0376 0.0586,0.11379 0.0723,0.22656 0.0171,0.11277 0.0259,0.36435 0.0293,0.75391 l 0.01,0.99804 0,2.37305 -0.004,1.08203 c -0.003,0.36564 -0.0171,0.60111 -0.041,0.70703 -0.0205,0.10591 -0.0503,0.17674 -0.0879,0.21094 -0.0342,0.0307 -0.10305,0.0556 -0.20898,0.0762 -0.10593,0.0205 -0.31892,0.0391 -0.63672,0.0527 l -0.041,0.0293 0,0.25781 0.041,0.041 c 0.87137,-0.0273 1.36087,-0.041 1.4668,-0.041 0.10935,0 0.59933,0.0137 1.4707,0.041 l 0.041,-0.041 0,-0.25781 -0.041,-0.0293 c -0.36221,-0.0137 -0.58938,-0.0327 -0.68164,-0.0566 -0.0923,-0.0273 -0.15528,-0.0601 -0.18945,-0.0977 -0.0308,-0.0376 -0.0552,-0.1138 -0.0723,-0.22656 -0.0171,-0.11277 -0.0279,-0.36192 -0.0312,-0.74805 l -0.004,-0.99805 0,-1.16992 c 0.9773,-0.0205 1.6749,-0.0312 2.09179,-0.0312 0.40664,0 1.11548,0.0107 2.12696,0.0312 l 0,1.16992 -0.0117,1.08008 c 0,0.36564 -0.0112,0.60111 -0.0352,0.70703 -0.0239,0.10591 -0.0537,0.17674 -0.0879,0.21094 -0.0342,0.0307 -0.10306,0.0556 -0.20899,0.0762 -0.10593,0.0205 -0.31941,0.0391 -0.64062,0.0527 l -0.0371,0.0293 0,0.25781 0.0371,0.041 c 0.87137,-0.0273 1.36135,-0.041 1.4707,-0.041 0.10593,0 0.59592,0.0137 1.4707,0.041 l 0.041,-0.041 0,-0.25781 -0.041,-0.0293 c -0.36563,-0.0137 -0.59523,-0.0327 -0.6875,-0.0566 -0.0888,-0.0273 -0.14942,-0.0601 -0.18359,-0.0977 -0.0308,-0.0376 -0.0552,-0.1138 -0.0723,-0.22656 -0.0171,-0.11277 -0.0279,-0.36192 -0.0312,-0.74805 l -0.01,-0.99805 0,-2.375 0.01,-1.17773 c 0.003,-0.24603 0.0142,-0.43753 0.0312,-0.57422 0.0171,-0.14009 0.0552,-0.22998 0.11328,-0.26758 0.0581,-0.0376 0.15091,-0.0625 0.27735,-0.0762 0.12985,-0.0137 0.31353,-0.0244 0.55273,-0.0312 l 0.041,-0.0352 0,-0.25586 -0.041,-0.0371 c -0.86454,0.0273 -1.35452,0.041 -1.4707,0.041 -0.10593,0 -0.59592,-0.0137 -1.47071,-0.041 l -0.0371,0.0371 0,0.25586 0.0371,0.0352 c 0.36564,0.0137 0.59329,0.0327 0.68555,0.0566 0.0923,0.0239 0.15479,0.0542 0.18555,0.0918 0.0307,0.0376 0.0552,0.1138 0.0723,0.22656 0.0171,0.11277 0.0259,0.36436 0.0293,0.75391 l 0.0117,0.99805 0,0.71875 c -0.4784,0.0205 -1.17601,0.0312 -2.0918,0.0312 -0.66976,0 -1.3786,-0.0107 -2.12695,-0.0312 l 0,-0.71875 0.01,-1.17774 c 0,-0.24603 0.008,-0.43753 0.0254,-0.57422 0.0205,-0.14009 0.0591,-0.22997 0.11718,-0.26757 0.0581,-0.0376 0.15091,-0.0625 0.27735,-0.0762 0.12985,-0.0137 0.31304,-0.0244 0.54883,-0.0312 l 0.041,-0.0352 0,-0.25586 -0.041,-0.0371 c -0.86796,0.0273 -1.35794,0.041 -1.47071,0.041 -0.10593,0 -0.59542,-0.0137 -1.46679,-0.041 z m 48.14062,0 -0.041,0.0371 0,0.25586 0.041,0.0352 c 0.36222,0.0137 0.58938,0.0327 0.68164,0.0566 0.0923,0.0239 0.1548,0.0542 0.18555,0.0918 0.0342,0.0376 0.0586,0.11379 0.0723,0.22656 0.0171,0.11277 0.0259,0.36435 0.0293,0.75391 l 0.01,0.99804 0,2.37305 -0.004,1.08203 c -0.003,0.36564 -0.0171,0.60111 -0.041,0.70703 -0.0205,0.10591 -0.0503,0.17674 -0.0879,0.21094 -0.0342,0.0307 -0.10305,0.0556 -0.20898,0.0762 -0.10594,0.0205 -0.31893,0.0391 -0.63672,0.0527 l -0.041,0.0293 0,0.25781 0.041,0.041 c 0.87137,-0.0273 1.36086,-0.041 1.46679,-0.041 0.13669,0 0.32574,0.003 0.56836,0.01 0.58433,0.0205 0.88526,0.0312 0.90235,0.0312 l 0.041,-0.041 0,-0.25781 -0.041,-0.0293 c -0.36222,-0.0137 -0.58938,-0.0327 -0.68164,-0.0566 -0.0923,-0.0273 -0.15528,-0.0601 -0.18946,-0.0977 -0.0307,-0.0376 -0.0552,-0.1138 -0.0723,-0.22656 -0.0171,-0.11277 -0.0279,-0.36192 -0.0312,-0.74805 l -0.004,-0.99805 0,-2.375 0.01,-1.17773 c 0,-0.24603 0.008,-0.43753 0.0254,-0.57422 0.0205,-0.14009 0.061,-0.22998 0.11914,-0.26758 0.0581,-0.0376 0.14896,-0.0625 0.27539,-0.0762 0.12986,-0.0137 0.31305,-0.0244 0.54883,-0.0312 l 0.041,-0.0352 0,-0.25586 -0.041,-0.0371 c -0.86453,0.0273 -1.35452,0.041 -1.4707,0.041 -0.12985,0 -0.40587,-0.006 -0.82617,-0.0195 l -0.6409,-0.0215 z m -108.98242,0.0156 -0.041,0.0469 0,0.24023 0.041,0.041 c 0.26312,0.003 0.44925,0.0171 0.55859,0.041 0.10933,0.0205 0.19433,0.0747 0.25586,0.16016 0.0649,0.082 0.0977,0.20854 0.0977,0.38281 l 0,4.14258 c 0,0.16061 -0.006,0.42636 -0.0195,0.79883 -0.0103,0.37247 -0.0234,0.61282 -0.0371,0.71875 -0.0103,0.10591 -0.0327,0.1826 -0.0703,0.23047 -0.0342,0.0478 -0.11576,0.081 -0.24219,0.10156 -0.12302,0.0206 -0.28765,0.0338 -0.4961,0.0371 l -0.0469,0.041 0,0.23438 0.0469,0.0469 c 0.38272,-0.0239 0.82874,-0.0352 1.33789,-0.0352 0.39639,0 0.68169,0.0112 0.85938,0.0352 l 0.041,-0.041 0,-0.24024 -0.041,-0.041 c -0.28362,-0.003 -0.47023,-0.0195 -0.5625,-0.0469 -0.0889,-0.0273 -0.14649,-0.0572 -0.17383,-0.0879 -0.0273,-0.0342 -0.0513,-0.0923 -0.0684,-0.17773 -0.0171,-0.0854 -0.0312,-0.33116 -0.0449,-0.73438 -0.0103,-0.40323 -0.0156,-0.68266 -0.0156,-0.83984 l 0,-3.93164 3.47461,4.34179 1.09179,1.33203 0.36524,0.43165 c 0.4203,0.0854 0.71586,0.15677 0.88671,0.21484 -0.007,-0.46473 -0.0146,-0.92736 -0.0215,-1.38867 l -0.004,-1.41016 0,-2.43555 c 0,-0.16402 0.003,-0.43222 0.0137,-0.80468 0.0137,-0.37247 0.0268,-0.60793 0.0371,-0.70703 0.0137,-0.0991 0.0357,-0.17335 0.0664,-0.22461 0.0308,-0.0513 0.10746,-0.087 0.23047,-0.10743 0.12302,-0.024 0.2979,-0.0377 0.52344,-0.041 l 0.041,-0.041 0,-0.23632 -0.0469,-0.0469 c -0.21186,0.0171 -0.55138,0.0254 -1.01953,0.0254 -0.51257,0 -0.90681,-0.008 -1.1836,-0.0254 l -0.041,0.0469 0,0.23632 0.041,0.041 c 0.20161,0.003 0.36038,0.0146 0.47657,0.0352 0.1196,0.0171 0.19923,0.0444 0.24023,0.082 0.0445,0.0376 0.0747,0.11136 0.0918,0.22071 0.0171,0.10593 0.0308,0.36045 0.041,0.76367 0.0137,0.39981 0.0215,0.66019 0.0215,0.7832 l 0,3.96875 C 99.62508,8.33064 99.32953,7.9833 99.03908,7.61767 L 96.63478,4.60399 95.00002,2.48095 c -0.22212,0.0171 -0.50643,0.0254 -0.85157,0.0254 -0.14693,0 -0.45616,-0.008 -0.92773,-0.0254 z m 19.51953,0 -0.041,0.0469 0,0.24023 0.041,0.041 c 0.26312,0.003 0.44924,0.0171 0.55859,0.041 0.10932,0.0205 0.19433,0.0747 0.25586,0.16016 0.0649,0.082 0.0977,0.20854 0.0977,0.38281 l 0,4.14258 c 0,0.16061 -0.008,0.42636 -0.0215,0.79883 -0.0103,0.37247 -0.0215,0.61282 -0.0352,0.71875 -0.0103,0.10591 -0.0347,0.1826 -0.0723,0.23047 -0.0342,0.0478 -0.1138,0.081 -0.24023,0.10156 -0.12302,0.0206 -0.2896,0.0338 -0.49805,0.0371 l -0.0449,0.041 0,0.23438 0.0449,0.0469 c 0.38272,-0.0239 0.82874,-0.0352 1.33789,-0.0352 0.3964,0 0.68364,0.0112 0.86133,0.0352 l 0.041,-0.041 0,-0.24024 -0.041,-0.041 c -0.28362,-0.003 -0.47219,-0.0195 -0.56445,-0.0469 -0.0889,-0.0273 -0.1465,-0.0572 -0.17383,-0.0879 -0.0273,-0.0342 -0.0493,-0.0923 -0.0664,-0.17773 -0.0171,-0.0854 -0.0332,-0.33116 -0.0469,-0.73438 -0.0103,-0.40323 -0.0137,-0.68266 -0.0137,-0.83984 l 0,-3.93164 3.47461,4.34179 1.09179,1.33203 0.36328,0.43165 c 0.42031,0.0854 0.71586,0.15677 0.88672,0.21484 l -0.0195,-1.38867 -0.006,-1.41016 0,-2.43555 c 0,-0.16402 0.005,-0.43222 0.0156,-0.80468 0.0137,-0.37247 0.0249,-0.60793 0.0352,-0.70703 0.0137,-0.0991 0.0357,-0.17335 0.0664,-0.22461 0.0307,-0.0513 0.1094,-0.087 0.23242,-0.10743 0.12302,-0.024 0.29595,-0.0377 0.52149,-0.041 l 0.041,-0.041 0,-0.23632 -0.0449,-0.0469 c -0.21186,0.0171 -0.55334,0.0254 -1.02148,0.0254 -0.51258,0 -0.90681,-0.008 -1.1836,-0.0254 l -0.041,0.0469 0,0.23632 0.041,0.041 c 0.20161,0.003 0.36038,0.0146 0.47656,0.0352 0.11961,0.0171 0.20119,0.0444 0.24219,0.082 0.0445,0.0376 0.0747,0.11136 0.0918,0.22071 0.0171,0.10593 0.0307,0.36045 0.041,0.76367 0.0137,0.39981 0.0195,0.66019 0.0195,0.7832 l 0,3.96875 C 119.14248,8.33064 118.84693,7.9833 118.55647,7.61767 L 116.15412,4.60399 114.5174,2.48095 c -0.22211,0.0171 -0.50448,0.0254 -0.84961,0.0254 -0.14693,0 -0.45616,-0.008 -0.92773,-0.0254 z m 58.25781,0 -0.0449,0.0469 0,0.24609 0.041,0.041 c 0.39981,0.007 0.64114,0.0264 0.72657,0.0605 0.0854,0.0342 0.14307,0.0884 0.17382,0.16016 0.0342,0.0683 0.0557,0.32579 0.0625,0.77344 0.0102,0.44422 0.0156,0.82185 0.0156,1.13281 l 0,2.34766 c -0.0102,0.87136 -0.0186,1.39652 -0.0254,1.57421 -0.003,0.17768 -0.0254,0.29835 -0.0664,0.36329 -0.0376,0.0649 -0.10256,0.11133 -0.1914,0.13867 -0.0889,0.0273 -0.31943,0.0439 -0.69531,0.0508 l -0.041,0.0469 0,0.24609 0.041,0.041 c 0.70734,-0.0273 1.11526,-0.041 1.2246,-0.041 0.24262,0 0.5328,0.008 0.8711,0.0254 l 0.32812,0.0156 0.0449,-0.0469 0,-0.24609 -0.041,-0.041 c -0.3998,-0.007 -0.64113,-0.0284 -0.72656,-0.0625 -0.0854,-0.0342 -0.14551,-0.084 -0.17969,-0.15235 -0.0342,-0.0683 -0.0562,-0.31993 -0.0664,-0.7539 -0.007,-0.4374 -0.01,-0.82333 -0.01,-1.15821 l 0,-3.58398 2.44922,5.08984 c 0.12302,0.26312 0.27935,0.61583 0.47071,1.05664 l 0.20117,0 c 0.33146,-0.81669 0.71983,-1.68723 1.16406,-2.61328 l 1.76758,-3.70117 0,3.76172 c -0.0103,0.85087 -0.0186,1.37065 -0.0254,1.55859 -0.007,0.18794 -0.0288,0.31398 -0.0664,0.37891 -0.0376,0.0615 -0.10305,0.10548 -0.19531,0.13281 -0.0888,0.0273 -0.32138,0.0464 -0.69727,0.0566 l -0.041,0.041 0,0.2461 0.0469,0.041 c 0.67318,-0.0307 1.14948,-0.0449 1.42969,-0.0449 0.41347,0 0.89808,0.0142 1.45508,0.0449 l 0.0469,-0.041 0,-0.25 -0.041,-0.0371 c -0.39981,-0.0103 -0.64309,-0.0298 -0.72852,-0.0605 -0.0854,-0.0342 -0.14551,-0.086 -0.17969,-0.1543 -0.0307,-0.0718 -0.0503,-0.32335 -0.0605,-0.75391 -0.0103,-0.43056 -0.0156,-0.81649 -0.0156,-1.1582 l 0,-2.36328 c 0.0137,-0.8577 0.022,-1.37797 0.0254,-1.5625 0.007,-0.1845 0.0288,-0.30761 0.0664,-0.36914 0.0376,-0.0649 0.10061,-0.11134 0.18946,-0.13867 0.0923,-0.0273 0.32724,-0.0464 0.70312,-0.0566 l 0.041,-0.0352 0,-0.25196 -0.0469,-0.041 c -0.38955,0.0171 -0.72663,0.0254 -1.01367,0.0254 -0.31779,0 -0.64071,-0.008 -0.96875,-0.0254 -0.16402,0.43398 -0.484,1.14526 -0.95898,2.13282 l -1.75383,3.65429 -1.94141,-3.98828 c -0.26312,-0.53649 -0.53913,-1.1359 -0.82617,-1.79883 -0.2802,0.0171 -0.60849,0.0254 -0.98437,0.0254 -0.39981,0 -0.71735,-0.008 -0.95313,-0.0254 z m -4.50976,0.27734 c 0.55357,0 1.05724,0.12604 1.51172,0.37891 0.45448,0.25287 0.80474,0.65785 1.05078,1.21484 0.24603,0.557 0.36914,1.18084 0.36914,1.8711 0,0.63558 -0.10699,1.21008 -0.32227,1.72265 -0.21528,0.50916 -0.52988,0.88434 -0.94336,1.12696 -0.41347,0.24262 -0.88636,0.36328 -1.41601,0.36328 -0.44765,0 -0.84726,-0.0826 -1.19922,-0.25 -0.34855,-0.16744 -0.65778,-0.42196 -0.92774,-0.76367 -0.26653,-0.34514 -0.46683,-0.75793 -0.60351,-1.23633 -0.13327,-0.48182 -0.20117,-0.93076 -0.20117,-1.34766 0,-1.01488 0.24035,-1.78137 0.71875,-2.30078 0.4784,-0.51941 1.13252,-0.7793 1.96289,-0.7793 z m 18.18554,0 c 0.55358,0 1.05724,0.12604 1.51172,0.37891 0.45448,0.25287 0.80475,0.65785 1.05078,1.21484 0.24604,0.557 0.36915,1.18084 0.36915,1.8711 0,0.63558 -0.10699,1.21008 -0.32227,1.72265 -0.21528,0.50916 -0.52989,0.88434 -0.94336,1.12696 -0.41347,0.24262 -0.88441,0.36328 -1.41406,0.36328 -0.44765,0 -0.84921,-0.0826 -1.20117,-0.25 -0.34855,-0.16744 -0.65778,-0.42196 -0.92774,-0.76367 -0.26654,-0.34514 -0.46683,-0.75793 -0.60351,-1.23633 -0.13327,-0.48182 -0.20118,-0.93076 -0.20118,-1.34766 0,-1.01488 0.24035,-1.78137 0.71875,-2.30078 0.4784,-0.51941 1.13253,-0.7793 1.96289,-0.7793 z m -79.14062,1.02539 1.28711,3.08985 -2.59375,0 1.30664,-3.08985 z M 58.76764,19.38913 c -2.29644,0 -4.36769,0.42475 -6.21484,1.27344 -1.83716,0.8387 -3.31901,2.11295 -4.44727,3.82031 -1.11827,1.69738 -1.67773,3.68446 -1.67773,5.96094 0,3.30489 1.12261,5.9805 3.36914,8.02734 2.25651,2.04684 5.18659,3.07032 8.79102,3.07032 2.51611,0 4.88303,-0.56511 7.09961,-1.69336 l 0.56836,-1.39258 -0.25391,-0.31445 c -0.49923,0.35944 -1.02311,0.66445 -1.57227,0.91406 -0.53916,0.24962 -1.21837,0.45917 -2.03711,0.6289 -0.81873,0.16974 -1.67192,0.25391 -2.56054,0.25391 -2.0069,0 -3.76382,-0.40414 -5.27149,-1.21289 -1.49768,-0.80875 -2.68212,-1.96694 -3.55078,-3.47461 -0.86866,-1.50767 -1.30273,-3.25894 -1.30273,-5.25586 0,-1.98692 0.37051,-3.66531 1.10937,-5.0332 0.73886,-1.37787 1.7773,-2.42564 3.11524,-3.14453 1.33793,-0.72888 2.84971,-1.09375 4.53711,-1.09375 1.11826,0 2.19229,0.16465 3.2207,0.49414 1.03839,0.31951 1.92152,0.76855 2.65039,1.34765 l 0.15039,2.54688 0.11914,0.11914 0.70313,0 0.10546,-0.11914 c 0.1997,-2.20659 0.41489,-3.5893 0.64454,-4.14844 L 65.9571,20.81296 c -0.86866,-0.38939 -1.95201,-0.72434 -3.25,-1.00391 -1.298,-0.27957 -2.61151,-0.41992 -3.93946,-0.41992 z M 33.0821,19.61374 c -0.75883,1.80721 -1.5222,3.61467 -2.29102,5.42188 l -4.07226,9.22656 -1.57422,3.41406 c -0.49923,1.07834 -0.83222,1.71828 -1.00196,1.91797 -0.15975,0.18971 -0.34501,0.31878 -0.55468,0.38867 -0.20968,0.0599 -0.67933,0.0955 -1.40821,0.10547 l -0.13476,0.11914 0,0.7793 0.13476,0.11914 c 1.11827,-0.0799 2.22592,-0.11914 3.32422,-0.11914 0.9685,0 2.09676,0.0393 3.38477,0.11914 l 0.12109,-0.11914 0,-0.7793 -0.13476,-0.11914 c -1.08832,-0.01 -1.76753,-0.0755 -2.03711,-0.19531 -0.26959,-0.11981 -0.4043,-0.30507 -0.4043,-0.55469 0,-0.3195 0.14404,-0.82278 0.43359,-1.51172 l 1.63282,-3.83398 8.67187,0 1.8418,4.56836 c 0.13978,0.35944 0.20898,0.64752 0.20898,0.86719 0,0.26958 -0.1384,0.44551 -0.41797,0.52539 -0.27956,0.0699 -0.97938,0.11476 -2.09765,0.13476 l -0.11914,0.11914 0,0.7793 0.11914,0.11914 c 1.65744,-0.0399 3.31522,-0.0848 4.97265,-0.13477 0.84869,0 1.80297,0.0449 2.86133,0.13477 l 0.11914,-0.11914 0,-0.7793 -0.11914,-0.11914 c -0.63901,-0.01 -1.05443,-0.0455 -1.24414,-0.10547 -0.17972,-0.0699 -0.33504,-0.16534 -0.46484,-0.28515 -0.11982,-0.11982 -0.34434,-0.51268 -0.67383,-1.18164 -0.31951,-0.66897 -0.6039,-1.28831 -0.85352,-1.85743 l -0.85351,-2.00781 -6.39453,-15.03711 -0.97461,0 z m 179.48633,0.13477 c -0.58909,1.52764 -1.02881,2.67086 -1.31836,3.42969 l -3.90821,9.78125 c -1.52764,3.8141 -2.41076,5.89468 -2.65039,6.24414 -0.22964,0.34943 -0.85831,0.5553 -1.88672,0.61523 l -0.16601,0.14844 0,0.97461 0.15039,0.13476 c 1.6175,-0.0599 2.63165,-0.0898 3.04101,-0.0898 0.52919,0 1.71731,0.0299 3.56446,0.0898 l 0.14844,-0.15039 0,-0.95898 -0.14844,-0.14844 c -0.75883,-0.0399 -1.2697,-0.0812 -1.5293,-0.12109 -0.46927,-0.0699 -0.70312,-0.29442 -0.70312,-0.67383 0,-0.34946 0.24881,-1.21762 0.74804,-2.60547 l 0.66016,-1.82617 c 1.53762,-0.0199 2.69581,-0.0312 3.47461,-0.0312 1.43778,0 2.84478,0.0113 4.22265,0.0312 l 1.2129,3.16015 c 0.27956,0.72888 0.41992,1.19658 0.41992,1.40625 0,0.35947 -0.27507,0.55406 -0.82422,0.58399 l -1.30274,0.0762 -0.14843,0.16406 0,0.94336 0.13476,0.15039 c 1.57756,-0.0599 3.28394,-0.0898 5.1211,-0.0898 0.45929,0 1.79709,0.0299 4.01367,0.0898 l 0.13476,-0.15039 0,-0.95898 -0.13476,-0.16407 c -0.61905,0 -1.09239,-0.0599 -1.42188,-0.17968 -0.24961,-0.0899 -0.53032,-0.48837 -0.83984,-1.19727 l -7.9375,-18.67773 -2.12695,0 z m -134.31446,0.0605 c -0.28955,0 -1.05488,0.0206 -2.29297,0.0605 -1.16819,0.0499 -2.22161,0.0742 -3.16015,0.0742 -0.68894,0 -2.29054,-0.0393 -4.80664,-0.11914 l -0.11914,0.10547 0,0.74804 0.11914,0.10547 c 1.05836,0.0399 1.7226,0.0942 1.99218,0.16406 0.26958,0.0699 0.4492,0.1597 0.53907,0.26953 0.0998,0.10983 0.16905,0.32871 0.20898,0.65821 0.0499,0.32949 0.0798,1.06488 0.0898,2.20312 l 0.0312,2.91992 0,6.9336 -0.0156,3.16015 c -0.01,1.06835 -0.0493,1.75689 -0.11914,2.06641 -0.0599,0.30952 -0.14603,0.51539 -0.25586,0.61524 -0.0999,0.0898 -0.30376,0.16467 -0.61328,0.2246 -0.30952,0.0599 -0.92886,0.10851 -1.85742,0.14844 l -0.11914,0.0918 0,0.74805 0.11914,0.11914 c 2.5161,-0.0799 3.94372,-0.11914 4.2832,-0.11914 0.31951,0 1.75277,0.0393 4.29883,0.11914 l 0.11914,-0.11914 0,-0.74805 -0.11914,-0.0918 c -1.05836,-0.0399 -1.7226,-0.0942 -1.99219,-0.16406 -0.26958,-0.0799 -0.45484,-0.17533 -0.55469,-0.28516 -0.0898,-0.10983 -0.15905,-0.32871 -0.20898,-0.6582 -0.0499,-0.32949 -0.0798,-1.05729 -0.0898,-2.18555 l -0.0156,-2.92187 0,-6.9336 c 0,-2.94544 0.0449,-4.80345 0.13477,-5.57226 1.08831,-0.33948 2.08749,-0.50781 2.99609,-0.50781 1.66742,0 2.90978,0.40413 3.72852,1.21289 0.82872,0.80874 1.24414,1.8921 1.24414,3.25 0,1.34792 -0.40046,2.45556 -1.19922,3.32422 -0.78878,0.85867 -1.83655,1.28711 -3.14453,1.28711 -0.46928,0 -1.07929,-0.0842 -1.82813,-0.25391 l -0.13476,0.15039 0.25585,0.91406 c 0.75883,0.13979 1.44736,0.20899 2.06641,0.20899 0.82872,0 1.62768,-0.12539 2.39648,-0.375 0.76882,-0.2596 1.52656,-0.68435 2.2754,-1.27344 0.74884,-0.58909 1.33455,-1.30192 1.7539,-2.14063 0.41935,-0.8387 0.62891,-1.70685 0.62891,-2.60546 0,-1.08832 -0.29937,-2.0183 -0.89844,-2.78711 -0.59907,-0.76882 -1.35876,-1.29639 -2.27734,-1.58594 -0.9086,-0.28955 -2.06115,-0.43555 -3.45899,-0.43555 z m 37.2461,0 c -0.31951,0 -0.83407,0.009 -1.54297,0.0293 -1.91704,0.0699 -3.43816,0.10547 -4.56641,0.10547 -1.01843,0 -2.44236,-0.0393 -4.26953,-0.11914 l -0.11914,0.10546 0,0.74805 0.11914,0.10547 c 1.05836,0.0399 1.7226,0.0942 1.99219,0.16406 0.26958,0.0699 0.4492,0.1597 0.53906,0.26953 0.0999,0.10983 0.171,0.32871 0.21094,0.65821 0.0499,0.32949 0.0798,1.06488 0.0898,2.20312 l 0.0293,2.91992 0,6.9336 -0.0156,3.16015 c -0.01,1.06835 -0.0492,1.75689 -0.11914,2.06641 -0.0599,0.30952 -0.14408,0.51539 -0.2539,0.61523 -0.0999,0.0898 -0.30571,0.16468 -0.61524,0.22461 -0.30952,0.0599 -0.92886,0.11046 -1.85742,0.15039 l -0.11914,0.0898 0,0.74805 0.11914,0.11914 c 2.54606,-0.0799 3.97368,-0.11914 4.2832,-0.11914 0.39939,0 0.95517,0.009 1.66407,0.0293 1.70735,0.0599 2.58483,0.0898 2.63476,0.0898 l 0.11914,-0.11914 0,-0.74805 -0.11914,-0.0918 c -1.05837,-0.0399 -1.72261,-0.0942 -1.99219,-0.16406 -0.26958,-0.0799 -0.45288,-0.17533 -0.55273,-0.28515 -0.0899,-0.10984 -0.161,-0.32872 -0.21094,-0.65821 -0.0499,-0.32949 -0.0798,-1.05729 -0.0898,-2.18554 l -0.0156,-2.92188 0,-6.93359 c 0,-3.52455 0.0768,-5.39752 0.22657,-5.61719 0.92856,-0.28955 1.91646,-0.43359 2.96484,-0.43359 1.49769,0 2.68581,0.33863 3.56445,1.01757 0.87864,0.66897 1.31836,1.66251 1.31836,2.98047 0,1.46774 -0.49026,2.6166 -1.46875,3.44532 -0.97848,0.82872 -2.33127,1.24218 -4.05859,1.24218 -0.28956,0 -0.69369,-0.015 -1.21289,-0.0449 l -0.15045,0.46481 c 1.79722,2.04684 3.55413,4.26972 5.27148,6.66602 1.47772,2.0668 2.56107,3.51871 3.25,4.35742 0.8387,-0.0599 1.61336,-0.0898 2.32227,-0.0898 0.65898,0 1.22777,0.0299 1.70703,0.0898 l 0.13476,-0.13476 0,-0.70313 -0.11914,-0.12109 c -0.35944,0 -0.62518,-0.015 -0.79492,-0.0449 -0.15975,-0.0299 -0.35434,-0.11044 -0.58398,-0.24024 -0.22965,-0.13978 -0.73857,-0.72354 -1.52735,-1.75195 -0.78878,-1.03839 -1.52785,-2.02065 -2.21679,-2.94922 l -2.12696,-2.81641 c -0.72887,-0.95851 -1.23215,-1.63208 -1.51172,-2.02148 1.50768,-0.28955 2.69017,-0.71994 3.54883,-1.28906 0.85868,-0.57911 1.50795,-1.27133 1.94727,-2.08008 0.43932,-0.80875 0.66015,-1.63396 0.66015,-2.47266 0,-1.25805 -0.45099,-2.34509 -1.3496,-3.26367 -0.89863,-0.91858 -2.61063,-1.37891 -5.13672,-1.37891 z m 122.32031,0 c -0.74884,0 -1.8771,0.0299 -3.38477,0.0898 -0.75882,0.0299 -1.74868,0.0449 -2.96679,0.0449 -2.09676,0 -3.63284,-0.0299 -4.61133,-0.0898 l -0.15039,0.13476 0,1.01953 0.15039,0.14844 c 1.01842,0.0599 1.60218,0.11046 1.75195,0.15039 0.28955,0.0799 0.45984,0.26514 0.50977,0.55469 0.1298,0.71889 0.19336,2.26625 0.19336,4.64258 l 0,7.92187 c 0,2.37633 -0.0636,3.92369 -0.19336,4.64258 -0.0499,0.28955 -0.22022,0.47482 -0.50977,0.55469 -0.14977,0.0399 -0.73353,0.0905 -1.75195,0.15039 l -0.15039,0.14844 0,1.01953 0.15039,0.13476 c 0.92856,-0.0599 2.46465,-0.0898 4.61133,-0.0898 2.07679,0 3.61482,0.0299 4.61328,0.0898 l 0.13476,-0.15039 0,-1.0039 -0.14843,-0.14844 c -1.01843,-0.0599 -1.60414,-0.11046 -1.75391,-0.15039 -0.28956,-0.0799 -0.45789,-0.26514 -0.50781,-0.55469 -0.1298,-0.71889 -0.19532,-2.26625 -0.19532,-4.64258 l 0,-7.83203 c 0,-2.35636 0.0505,-4.02346 0.1504,-5.00195 0.45929,-0.0799 0.93827,-0.12109 1.4375,-0.12109 1.14822,0 2.02201,0.14035 2.62109,0.41992 1.25805,0.58908 1.88672,1.72667 1.88672,3.41406 0,0.9685 -0.2152,1.80303 -0.64453,2.50195 -0.42934,0.69892 -0.89899,1.18723 -1.40821,1.4668 -0.55913,0.30953 -1.32815,0.46484 -2.30664,0.46484 -0.10983,0 -0.27816,-0.006 -0.50781,-0.0156 l -0.16602,0.50977 c 0.37942,0.29954 0.67509,0.60454 0.88477,0.91406 l 1.66211,2.53125 3.71484,6.19922 c 0.33948,0.55913 0.52842,0.95959 0.56836,1.19922 1.10829,-0.0599 1.91657,-0.0898 2.42578,-0.0898 0.33948,0 1.19462,0.0243 2.5625,0.0742 0.30953,0.01 0.49847,0.0156 0.56836,0.0156 l 0.15039,-0.15039 0,-0.95703 -0.15039,-0.15039 c -0.40936,0 -0.72934,-0.0748 -0.95898,-0.22461 -0.44931,-0.28956 -1.35304,-1.48332 -2.71094,-3.58008 l -2.30664,-3.54883 c -0.55913,-0.85867 -1.08671,-1.70817 -1.58594,-2.54687 3.05528,-1.13824 4.58203,-3.06545 4.58203,-5.78125 0,-0.66896 -0.0898,-1.24709 -0.26953,-1.73633 -0.36943,-0.99846 -1.09918,-1.7076 -2.1875,-2.12696 -0.80875,-0.30952 -2.0754,-0.46484 -3.80273,-0.46484 z M 0.11921,19.82461 7e-5,19.93008 l 0,0.74804 0.11914,0.10547 c 1.05836,0.0399 1.7226,0.0942 1.99218,0.16406 0.26959,0.0699 0.44921,0.1597 0.53907,0.26954 0.0998,0.10982 0.16905,0.32871 0.20898,0.6582 0.0499,0.32949 0.0798,1.06488 0.0898,2.20312 l 0.0312,2.91993 0,6.93359 -0.0156,3.16016 c -0.01,1.06834 -0.0493,1.75688 -0.11914,2.0664 -0.0599,0.30952 -0.14603,0.51539 -0.25586,0.61524 -0.0999,0.0898 -0.30376,0.16467 -0.61328,0.22461 -0.30952,0.0599 -0.92886,0.11045 -1.85742,0.15039 L 0,40.23863 l 0,0.74804 0.11914,0.11914 c 2.54606,-0.0799 3.97368,-0.11914 4.2832,-0.11914 0.39938,0 0.9532,0.009 1.66211,0.0293 1.70735,0.0599 2.58678,0.0898 2.63672,0.0898 l 0.11914,-0.11914 0,-0.74804 -0.11914,-0.0898 C 7.64281,40.10889 6.97857,40.05269 6.70898,39.98277 6.4394,39.90287 6.25414,39.80744 6.15429,39.69761 6.06449,39.58778 5.99524,39.3689 5.94531,39.03941 5.89541,38.70992 5.86551,37.98212 5.85551,36.85386 l -0.0156,-2.92187 0,-3.18945 c 5.13207,4.69274 8.03785,7.36836 8.7168,8.02734 0.68893,0.65899 1.48788,1.41868 2.39648,2.27734 1.24807,-0.0399 2.05635,-0.0606 2.42578,-0.0606 0.61904,0 1.21777,0.0206 1.79688,0.0606 l 0.10547,-0.12109 0,-0.62891 -0.10547,-0.11914 c -0.54916,-0.02 -0.91208,-0.0911 -1.0918,-0.21093 -0.16974,-0.11982 -0.97997,-0.85326 -2.42773,-2.20118 L 8.64069,29.42418 14.7071,23.88316 c 0.84868,-0.7788 1.59709,-1.43371 2.24609,-1.96289 0.65898,-0.53917 1.15857,-0.85718 1.49805,-0.95703 0.33947,-0.10983 0.97378,-0.16602 1.90234,-0.16602 l 0.11914,-0.11914 0,-0.70312 -0.15039,-0.13477 c -1.37787,0.0299 -2.16555,0.043 -2.36523,0.043 -0.89862,0 -1.7275,-0.0187 -2.48633,-0.0586 l -0.15039,0.11914 0,0.97461 c -0.13979,0.20968 -0.57386,0.67738 -1.30274,1.40625 l -2.75585,2.75586 c -1.10829,1.10829 -2.91576,2.79601 -5.42188,5.0625 l 0,-3.14453 0.0293,-3.44536 c 0,-0.71889 0.0262,-1.27835 0.0762,-1.67773 0.0599,-0.40937 0.17402,-0.66751 0.34375,-0.77734 0.16974,-0.10984 0.43917,-0.18468 0.80859,-0.22461 0.37942,-0.0399 0.91458,-0.0698 1.60352,-0.0898 l 0.11914,-0.10547 0,-0.74805 -0.11914,-0.10547 c -2.5261,0.0799 -3.95936,0.11914 -4.29883,0.11914 -0.37941,0 -1.18401,-0.0187 -2.41211,-0.0586 l -1.87109,-0.0605 z m 86.71484,0 -0.11914,0.10547 0,0.74804 0.11914,0.10547 1.13867,0.0898 c 0.34946,0.0399 0.59459,0.0885 0.73438,0.14844 0.14974,0.0499 0.25452,0.11543 0.31445,0.19531 0.0699,0.0799 0.12975,0.22023 0.17969,0.41992 0.05,0.1997 0.0855,0.53268 0.10547,1.00196 0.02,0.45928 0.0293,1.05997 0.0293,1.79883 l 0.0156,3.39843 0,5.4961 c 0,0.87864 -0.0299,2.15853 -0.0898,3.83593 -0.0499,1.66742 -0.12108,2.53927 -0.21094,2.61915 -0.0799,0.0699 -0.41287,0.25515 -1.00196,0.55468 l -0.12109,0.15039 0,0.49414 0.12109,0.11914 c 1.02841,-0.0799 2.01631,-0.11914 2.96485,-0.11914 l 4.07422,0.0293 c 3.08522,0 5.58122,0.0299 7.48828,0.0898 l 0.10351,-0.11914 c 0,-0.75882 0.0412,-1.67188 0.1211,-2.74023 0.0899,-1.06835 0.17966,-1.81871 0.26953,-2.24805 l -0.12109,-0.10351 -0.71876,0 -0.14843,0.10351 c -0.03,0.20968 -0.1497,0.73552 -0.35938,1.57422 -0.19969,0.82872 -0.34568,1.35629 -0.43554,1.58594 -0.54916,0.22962 -1.12728,0.37561 -1.73633,0.43555 -0.60906,0.0599 -2.12648,0.0898 -4.55274,0.0898 l -2.75586,0 c -0.0499,-0.98848 -0.0762,-2.53216 -0.0762,-4.62891 0,-1.95698 0.0262,-3.35466 0.0762,-4.19336 1.18817,-0.0499 2.07129,-0.0742 2.65039,-0.0742 1.04838,0 1.87163,0.0299 2.47071,0.0898 0.59907,0.0599 0.96959,0.14039 1.10937,0.24024 0.14978,0.0998 0.24327,0.21958 0.28321,0.35937 0.0399,0.1298 0.10545,0.54327 0.19531,1.24219 l 0.10547,0.89844 0.11914,0.12109 0.68945,0 0.11914,-0.12109 -0.0742,-3.36915 c 0.03,-1.0983 0.0543,-2.19098 0.0742,-3.27929 l -0.11914,-0.1211 -0.68945,0 -0.11914,0.1211 -0.0606,0.92773 c -0.0399,0.46928 -0.0905,0.79858 -0.15039,0.98828 -0.0499,0.17973 -0.12845,0.30511 -0.23828,0.375 -0.0998,0.0599 -0.45908,0.11976 -1.07813,0.17969 -0.61904,0.0599 -1.38806,0.0898 -2.30664,0.0898 -0.9086,0 -1.90213,-0.0299 -2.98047,-0.0898 l 0.0449,-3.04101 0.0449,-2.74024 0.0586,-2.39648 c 1.22811,-0.10984 2.23661,-0.16407 3.02539,-0.16407 0.55914,0 1.39367,0.0449 2.50195,0.13477 1.11828,0.0799 1.99207,0.2595 2.6211,0.53906 0.1298,0.76882 0.19336,1.5771 0.19336,2.42578 0,0.0699 -0.004,0.15038 -0.0137,0.24024 l 0.13476,0.11914 0.73438,0 0.0898,-0.11914 c 0.11981,-2.04684 0.30312,-3.54929 0.55273,-4.50781 l -0.0742,-0.10547 c -2.55606,0.0599 -5.47116,0.0898 -8.7461,0.0898 -0.95852,0 -3.15146,-0.0299 -6.57617,-0.0898 z m 43.34766,0.0293 -0.16602,0.15039 0,0.98828 0.15039,0.16406 c 1.01843,0.0599 1.60219,0.11046 1.75195,0.15039 0.28956,0.0799 0.45984,0.26514 0.50977,0.55469 0.1298,0.71889 0.19531,2.26625 0.19531,4.64258 l 0,7.92187 c 0,2.37633 -0.0655,3.92369 -0.19531,4.64258 -0.0499,0.28955 -0.22021,0.47482 -0.50977,0.55469 -0.14976,0.0399 -0.72788,0.0905 -1.73632,0.15039 l -0.16602,0.16406 0,1.00391 0.15039,0.13476 c 0.92857,-0.0599 2.4666,-0.0898 4.61328,-0.0898 1.90706,0 3.54423,0.0299 4.91211,0.0898 l 0.15039,-0.15039 0,-0.98828 -0.16601,-0.16406 c -1.27803,-0.0799 -1.96092,-0.13039 -2.05078,-0.15039 -0.28954,-0.0799 -0.45984,-0.26514 -0.50977,-0.55469 -0.1298,-0.71889 -0.19531,-2.26625 -0.19531,-4.64258 l 0,-7.92187 c 0,-3.02533 0.0449,-4.65881 0.13476,-4.89844 0.89862,-0.11981 1.4993,-0.17969 1.79883,-0.17969 2.50613,0 3.75781,1.394 3.75781,4.17969 0,1.28801 -0.30306,2.29088 -0.9121,3.00977 -0.60906,0.7089 -1.4193,1.0625 -2.42774,1.0625 -0.34946,0 -0.733,-0.0692 -1.15234,-0.20899 l -0.31446,0.33008 c 0.2596,0.44931 0.43358,0.80854 0.52344,1.07813 0.60906,0.13978 1.21343,0.20898 1.8125,0.20898 1.76727,0 3.35021,-0.57443 4.74805,-1.72266 1.40782,-1.1582 2.11133,-2.76544 2.11133,-4.82226 0,-1.01843 -0.20956,-1.88658 -0.62891,-2.60547 -0.81873,-1.38785 -2.59626,-2.08203 -5.33203,-2.08203 -0.23963,0 -1.14704,0.015 -2.72461,0.0449 -1.57756,0.0299 -2.7863,0.0449 -3.625,0.0449 -2.02687,0 -3.52933,-0.0299 -4.50781,-0.0898 z m 18.99023,0 -0.15039,0.13476 0,1.01953 0.15039,0.14844 c 1.01843,0.0599 1.60219,0.11046 1.75195,0.15039 0.28956,0.0799 0.45985,0.26514 0.50977,0.55469 0.1298,0.71889 0.19531,2.26625 0.19531,4.64258 l 0,7.92187 c 0,2.37633 -0.0655,3.92369 -0.19531,4.64258 -0.0499,0.28955 -0.22021,0.47482 -0.50977,0.55469 -0.14976,0.0399 -0.73352,0.0905 -1.75195,0.15039 l -0.15039,0.14844 0,1.0039 0.13477,0.15039 c 0.99845,-0.0599 2.53649,-0.0898 4.61328,-0.0898 2.08677,0 3.63045,0.0299 4.6289,0.0898 l 0.13477,-0.15039 0,-1.0039 -0.15039,-0.14844 c -1.01843,-0.0599 -1.60219,-0.11046 -1.75195,-0.15039 -0.28956,-0.0799 -0.45985,-0.26514 -0.50977,-0.55469 -0.1298,-0.71889 -0.19531,-2.26625 -0.19531,-4.64258 l 0,-7.92187 c 0,-2.37633 0.0655,-3.92369 0.19531,-4.64258 0.0499,-0.28955 0.22021,-0.47481 0.50977,-0.55469 0.14976,-0.0399 0.73352,-0.0905 1.75195,-0.15039 l 0.15039,-0.14844 0,-1.01953 -0.15039,-0.13476 c -0.95852,0.0599 -2.49091,0.0898 -4.59766,0.0898 -2.11672,0 -3.65476,-0.0299 -4.61328,-0.0898 z m 11.66602,0 -0.14844,0.13476 0,1.01953 0.14844,0.14844 c 1.01842,0.0599 1.60413,0.11046 1.7539,0.15039 0.28956,0.0799 0.4579,0.26514 0.50782,0.55469 0.1298,0.71889 0.19531,2.26625 0.19531,4.64258 l 0,7.59375 -0.0449,3.35351 c -0.02,1.13824 -0.0742,1.80248 -0.16406,1.99219 -0.0599,0.11981 -0.46037,0.41549 -1.19922,0.88477 l -0.0742,0.17968 0,0.41797 0.15039,0.15039 c 0.74884,-0.0599 2.03046,-0.0898 3.84765,-0.0898 l 10.88868,0.0898 0.15039,-0.15039 c 0,-1.83716 0.10846,-3.48366 0.32812,-4.9414 l -0.16406,-0.15039 -0.91406,0 -0.14844,0.16406 -0.35938,1.85742 c -0.0899,0.45929 -0.18531,0.75865 -0.28515,0.89844 -0.0499,0.0699 -0.1304,0.12608 -0.24024,0.16601 -0.65898,0.22965 -2.44583,0.34375 -5.36132,0.34375 l -2.03711,0 c -0.0499,-1.2281 -0.0742,-2.4967 -0.0742,-3.80468 l 0,-4.56641 c 0.62902,-0.0499 1.30823,-0.0762 2.03711,-0.0762 0.68893,0 1.33625,0.0262 1.94531,0.0762 0.80875,0.0699 1.29337,0.21393 1.45312,0.43359 0.15976,0.20968 0.24024,0.88889 0.24024,2.03711 l 0.15039,0.15039 1.00195,0 0.15039,-0.13671 c -0.0399,-1.19815 -0.0606,-2.30016 -0.0606,-3.3086 0,-0.92857 0.0206,-1.95204 0.0606,-3.07031 l -0.15039,-0.15039 -0.92773,0 -0.15039,0.15039 c -0.0499,1.16819 -0.1547,1.84176 -0.31446,2.02148 -0.11981,0.13977 -0.63806,0.21461 -1.55664,0.22461 l -1.96289,0.0156 c -0.48924,0 -1.12723,-0.0262 -1.91601,-0.0762 l 0,-3.09961 c 0,-1.85712 0.0542,-3.30904 0.16406,-4.35742 0.88862,-0.0699 1.76806,-0.10547 2.63672,-0.10547 0.72887,0 1.57273,0.0393 2.53125,0.11914 0.9685,0.0799 1.50735,0.19029 1.61718,0.33008 0.14977,0.18971 0.2283,0.96437 0.23829,2.32227 l 0.15039,0.14843 0.86914,0 0.15039,-0.16406 0.10351,-1.39258 c 0.03,-0.36943 0.0749,-0.81847 0.13477,-1.34765 l 0.19531,-1.66211 -0.16406,-0.1211 c -5.26187,0.0599 -8.83189,0.0898 -10.70899,0.0898 -2.10674,0 -3.66538,-0.0299 -4.67382,-0.0898 z m 18.57226,0 -0.15039,0.13476 0,1.01953 0.15039,0.14844 c 1.01843,0.0599 1.60219,0.11046 1.75196,0.15039 0.28955,0.0799 0.45984,0.26514 0.50976,0.55469 0.1298,0.71889 0.19531,2.26625 0.19531,4.64258 l 0,7.92187 c 0,2.37633 -0.0655,3.92369 -0.19531,4.64258 -0.0499,0.28955 -0.22021,0.47482 -0.50976,0.55469 -0.14977,0.0399 -0.73353,0.0905 -1.75196,0.15039 l -0.15039,0.14844 0,1.01953 0.15039,0.13476 c 0.92857,-0.0599 2.4666,-0.0898 4.61328,-0.0898 2.07679,0 3.61483,0.0299 4.61328,0.0898 l 0.13477,-0.15039 0,-1.0039 -0.15039,-0.14844 c -1.01843,-0.0599 -1.60218,-0.11046 -1.75195,-0.15039 -0.28956,-0.0799 -0.45985,-0.26514 -0.50977,-0.55469 -0.1298,-0.71889 -0.19531,-2.26625 -0.19531,-4.64258 l 0,-3.56445 c 1.11827,0.91858 2.16235,1.92709 3.13086,3.02539 l 4.44726,5.07813 c 0.79877,0.9086 1.31333,1.6121 1.54297,2.11132 1.20814,-0.0599 2.09126,-0.0898 2.65039,-0.0898 0.62903,0 1.76292,0.0299 3.40039,0.0898 l 0.15039,-0.15039 0,-1.0039 -0.15039,-0.16407 c -0.54915,-0.01 -0.94396,-0.0699 -1.18359,-0.17968 -0.3894,-0.17972 -1.82634,-1.71212 -4.3125,-4.59766 l -3.35547,-3.89453 c -0.9685,-1.12825 -1.66637,-1.98144 -2.0957,-2.56055 l 3.02539,-2.875 c 2.25651,-2.1367 3.7889,-3.4745 4.59765,-4.01367 0.55914,-0.36943 1.41797,-0.55469 2.57618,-0.55469 l 0.14843,-0.15039 0,-0.92773 -0.14843,-0.15039 c -1.1682,0.0599 -2.18799,0.0898 -3.05664,0.0898 -0.73886,0 -1.49096,-0.0299 -2.25977,-0.0898 l -0.16602,0.15039 0,1.0332 c -1.13824,1.31796 -2.0719,2.35641 -2.80078,3.11524 l -2.12695,2.20117 c -0.80875,0.8387 -2.14656,2.12792 -4.01367,3.86523 l 0,-3.71484 c 0,-2.37633 0.0655,-3.92369 0.19531,-4.64258 0.0499,-0.28955 0.22021,-0.47481 0.50977,-0.55469 0.14977,-0.0399 0.73352,-0.0905 1.75195,-0.15039 l 0.15039,-0.13476 0,-1.03321 -0.13477,-0.13476 c -0.90859,0.0599 -2.44663,0.0898 -4.61328,0.0898 -2.11672,0 -3.65476,-0.0299 -4.61328,-0.0898 z m 70.88477,0 -0.14844,0.15039 c 0.02,0.92857 0.0293,1.52729 0.0293,1.79687 0,0.84869 -0.0356,1.80297 -0.10547,2.86133 l 0.15039,0.17969 0.91406,0 0.16406,-0.15039 0.11915,-0.74805 c 0.12979,-0.79877 0.21592,-1.26473 0.25585,-1.39453 0.0999,-0.32949 0.27947,-0.52776 0.53907,-0.59766 0.43932,-0.12978 2.11207,-0.20093 5.01757,-0.21093 l 3.75782,-0.0137 c -1.84715,2.8456 -3.23355,4.94678 -4.16211,6.30468 l -2.80078,4.11914 -2.1875,3.11524 c -1.51766,2.15667 -2.64591,3.69839 -3.38477,4.62695 l 0,1.04883 0.15039,0.13477 c 3.96387,-0.0799 6.72366,-0.11914 8.28125,-0.11914 2.12671,0 5.24205,0.0393 9.3457,0.11914 l 0.1504,-0.13477 c 0.10983,-1.6175 0.26883,-3.33515 0.47851,-5.15234 l -0.16406,-0.16407 -0.89844,0 -0.16601,0.14844 c -0.0499,0.18971 -0.10416,0.4292 -0.16407,0.71875 -0.27957,1.38785 -0.50973,2.15687 -0.68945,2.30664 -0.32949,0.27957 -3.02376,0.41992 -8.08594,0.41992 -1.07833,0 -1.88292,-0.009 -2.41211,-0.0293 1.82718,-2.8456 2.99101,-4.63245 3.49024,-5.36132 l 4.43164,-6.5 c 0.92856,-1.3579 2.03816,-2.92588 3.32617,-4.70313 l 1.22852,-1.72266 0,-0.89843 -0.1504,-0.15039 c -3.71425,0.0599 -6.12608,0.0898 -7.23437,0.0898 -4.69275,0 -7.71827,-0.0299 -9.07617,-0.0898 z m -217.4668,3.82031 3.75977,9.0293 -7.57813,0 3.81836,-9.0293 z m 179.50195,1.34766 3.20508,7.84765 c -0.78878,0.0299 -1.8179,0.0449 -3.08594,0.0449 -1.30797,0 -2.37071,-0.015 -3.18945,-0.0449 l 3.07031,-7.84765 z"
     style="font-style:normal;font-variant:normal;font-weight:normal;font-stretch:normal;font-size:medium;line-height:125%;font-family:'Palatino Linotype';-inkscape-font-specification:'Palatino Linotype';letter-spacing:0px;word-spacing:0px;fill:#fff;fill-opacity:1;stroke:none;stroke-width:1px;stroke-linecap:butt;stroke-linejoin:miter;stroke-opacity:1" />
</svg>
